# Trapezoid mesh with cubic Bezier edges
o trapezoid_1776938983
v 0.000000 0.000000 0.000000
v 0.031383 0.000000 0.009988
v 0.063430 0.000000 0.019263
v 0.096093 0.000000 0.027824
v 0.129321 0.000000 0.035672
v 0.163065 0.000000 0.042806
v 0.197277 0.000000 0.049227
v 0.231908 0.000000 0.054935
v 0.266907 0.000000 0.059929
v 0.302226 0.000000 0.064209
v 0.337816 0.000000 0.067776
v 0.373627 0.000000 0.070630
v 0.409611 0.000000 0.072771
v 0.445717 0.000000 0.074197
v 0.481898 0.000000 0.074911
v 0.518102 0.000000 0.074911
v 0.554283 0.000000 0.074197
v 0.590389 0.000000 0.072771
v 0.626373 0.000000 0.070630
v 0.662184 0.000000 0.067776
v 0.697774 0.000000 0.064209
v 0.733093 0.000000 0.059929
v 0.768092 0.000000 0.054935
v 0.802723 0.000000 0.049227
v 0.836935 0.000000 0.042806
v 0.870679 0.000000 0.035672
v 0.903907 0.000000 0.027824
v 0.936570 0.000000 0.019263
v 0.968617 0.000000 0.009988
v 1.000000 0.000000 0.000000
v 0.000000 0.000000 0.000000
v 0.000000 1.000000 0.000000
v 0.031383 1.000000 0.009988
v 0.063430 1.000000 0.019263
v 0.096093 1.000000 0.027824
v 0.129321 1.000000 0.035672
v 0.163065 1.000000 0.042806
v 0.197277 1.000000 0.049227
v 0.231908 1.000000 0.054935
v 0.266907 1.000000 0.059929
v 0.302226 1.000000 0.064209
v 0.337816 1.000000 0.067776
v 0.373627 1.000000 0.070630
v 0.409611 1.000000 0.072771
v 0.445717 1.000000 0.074197
v 0.481898 1.000000 0.074911
v 0.518102 1.000000 0.074911
v 0.554283 1.000000 0.074197
v 0.590389 1.000000 0.072771
v 0.626373 1.000000 0.070630
v 0.662184 1.000000 0.067776
v 0.697774 1.000000 0.064209
v 0.733093 1.000000 0.059929
v 0.768092 1.000000 0.054935
v 0.802723 1.000000 0.049227
v 0.836935 1.000000 0.042806
v 0.870679 1.000000 0.035672
v 0.903907 1.000000 0.027824
v 0.936570 1.000000 0.019263
v 0.968617 1.000000 0.009988
v 1.000000 1.000000 0.000000
v 0.000000 1.000000 0.000000
f 1 32 2
f 2 32 33
f 2 33 3
f 3 33 34
f 3 34 4
f 4 34 35
f 4 35 5
f 5 35 36
f 5 36 6
f 6 36 37
f 6 37 7
f 7 37 38
f 7 38 8
f 8 38 39
f 8 39 9
f 9 39 40
f 9 40 10
f 10 40 41
f 10 41 11
f 11 41 42
f 11 42 12
f 12 42 43
f 12 43 13
f 13 43 44
f 13 44 14
f 14 44 45
f 14 45 15
f 15 45 46
f 15 46 16
f 16 46 47
f 16 47 17
f 17 47 48
f 17 48 18
f 18 48 49
f 18 49 19
f 19 49 50
f 19 50 20
f 20 50 51
f 20 51 21
f 21 51 52
f 21 52 22
f 22 52 53
f 22 53 23
f 23 53 54
f 23 54 24
f 24 54 55
f 24 55 25
f 25 55 56
f 25 56 26
f 26 56 57
f 26 57 27
f 27 57 58
f 27 58 28
f 28 58 59
f 28 59 29
f 29 59 60
f 29 60 30
f 30 60 61
f 30 61 31
f 31 61 62
